Music_Celadon_Ch1::
	tempo 146
	volume 7, 7
Music_Celadon_branch_f436c::
	notetype $c, $a, $6
	octave 3
	A_ 7
	G# 1
	A_ 1
	D_ 3
	E_ 2
	F# 2
	callchannel Music_Celadon_branch_f43cc
Music_Celadon_branch_f437d::
	D_ 2
	F# 1
	A_ 1
	D_ 1
	F# 1
	A_ 1
	F# 1
	loopchannel 3, Music_Celadon_branch_f437d
	D_ 2
	G_ 1
	B_ 1
	octave 4
	D_ 1
	C_ 1
	octave 3
	B_ 1
	G_ 1
	callchannel Music_Celadon_branch_f43cc
	D_ 1
	C# 1
	D_ 1
	E_ 1
	F# 1
	G_ 1
	A_ 1
	B_ 1
	A_ 2
	G_ 2
	F# 2
	E_ 2
	F# 16
	callchannel Music_Celadon_branch_f43e1
	callchannel Music_Celadon_branch_f43fe
	octave 2
	B_ 2
	A# 1
	B_ 1
	octave 3
	D_ 1
	G_ 1
	A_ 1
	G_ 1
	F# 1
	G_ 1
	A_ 1
	G# 1
	A_ 1
	octave 4
	C_ 1
	octave 3
	B_ 1
	A_ 1
	callchannel Music_Celadon_branch_f43e1
	callchannel Music_Celadon_branch_f43fe
	D_ 2
	C# 1
	D_ 1
	F# 1
	G_ 1
	A_ 1
	G_ 1
	A_ 8
	loopchannel 0, Music_Celadon_branch_f436c

Music_Celadon_branch_f43cc::
	D_ 2
	G_ 1
	B_ 1
	D_ 1
	G_ 1
	B_ 1
	G_ 1
	loopchannel 3, Music_Celadon_branch_f43cc
	D_ 2
	F# 1
	A_ 1
	octave 4
	D_ 1
	C# 1
	D_ 1
	octave 3
	A_ 1
	endchannel

Music_Celadon_branch_f43e1::
	octave 2
	G_ 2
	B_ 1
	octave 3
	D_ 1
	loopchannel 4, Music_Celadon_branch_f43e1
	C_ 2
	octave 2
	B_ 1
	octave 3
	C_ 1
	D_ 1
	E_ 1
	F# 1
	A_ 1
	G_ 1
	A_ 1
	B_ 1
	octave 4
	C_ 1
	D_ 1
	C# 1
	D_ 1
	octave 3
	B_ 1
	endchannel

Music_Celadon_branch_f43fe::
	D_ 2
	F# 1
	A_ 1
	loopchannel 4, Music_Celadon_branch_f43fe
	endchannel

Music_Celadon_Ch2::
	vibrato $12, $3, $4
	duty $2
	notetype $c, $b, $7
	octave 4
	D_ 1
	C# 1
	D_ 1
	E_ 1
	F# 1
	E_ 1
	F# 1
	G_ 1
	A_ 8
Music_Celadon_branch_f441a::
	callchannel Music_Celadon_branch_f4463
	A_ 4
	F# 4
	A_ 2
	F# 6
	A_ 1
	G_ 1
	F# 1
	G_ 1
	A_ 2
	B_ 2
	G_ 4
	B_ 4
	callchannel Music_Celadon_branch_f4463
	A_ 2
	G_ 2
	F# 2
	G_ 2
	F# 2
	E_ 2
	D_ 2
	C# 2
	D_ 4
	D_ 1
	E_ 1
	F# 1
	A_ 1
	octave 5
	D_ 6
	octave 1
	F# 2
	callchannel Music_Celadon_branch_f4474
	octave 1
	G_ 3
	B_ 1
	A_ 2
	octave 2
	D_ 2
	octave 1
	A_ 6
	F# 2
	callchannel Music_Celadon_branch_f4474
	octave 1
	A_ 3
	octave 2
	D_ 1
	A_ 4
	D_ 6
	octave 4
	F# 1
	A_ 1
	octave 5
	D_ 16
	loopchannel 0, Music_Celadon_branch_f441a

Music_Celadon_branch_f4463::
	octave 4
	B_ 4
	G_ 4
	B_ 2
	G_ 6
	B_ 1
	G_ 1
	A_ 1
	B_ 1
	octave 5
	C_ 2
	octave 4
	B_ 2
	A_ 8
	endchannel

Music_Celadon_branch_f4474::
	G_ 3
	B_ 1
	octave 2
	D_ 4
	octave 1
	G_ 2
	B_ 2
	octave 2
	D_ 4
	octave 1
	G_ 3
	octave 2
	C_ 1
	D_ 4
	octave 1
	G_ 2
	B_ 2
	octave 2
	D_ 4
	octave 1
	A_ 3
	octave 2
	D_ 1
	F# 4
	octave 1
	A_ 2
	octave 2
	D_ 2
	F# 4
	endchannel

Music_Celadon_Ch3::
	vibrato $12, $2, $4
Music_Celadon_branch_f4495::
	notetype $c, $2, $5
	octave 3
	A_ 2
	rest 2
	F# 2
	rest 2
	D_ 8
	callchannel Music_Celadon_branch_f44fd
Music_Celadon_branch_f44a1::
	octave 2
	A_ 2
	rest 2
	octave 3
	D_ 4
	loopchannel 3, Music_Celadon_branch_f44a1
	octave 2
	G_ 1
	rest 1
	B_ 1
	rest 1
	octave 3
	D_ 3
	octave 2
	F# 1
	callchannel Music_Celadon_branch_f44fd
	A_ 1
	rest 1
	octave 3
	D_ 1
	rest 1
	octave 3
	F# 3
	octave 2
	G# 1
	A_ 1
	rest 1
	octave 3
	C# 1
	rest 1
	E_ 2
	C# 2
	D_ 2
	rest 6
	octave 2
	A_ 2
	rest 6
	callchannel Music_Celadon_branch_f4510
	octave 5
	E_ 2
	rest 2
	F# 2
	rest 2
	D_ 4
	rest 4
	C_ 8
	octave 4
	A_ 2
	B_ 2
	octave 5
	C_ 2
	D_ 2
	E_ 2
	rest 2
	D_ 2
	E_ 2
	D_ 4
	rest 4
	callchannel Music_Celadon_branch_f4510
	octave 5
	E_ 2
	rest 2
	D_ 2
	E_ 2
	D_ 4
	rest 4
	C_ 8
	A_ 2
	G_ 2
	F# 2
	E_ 2
	F# 2
	E_ 2
	D_ 2
	E_ 2
	D_ 2
	rest 6
	loopchannel 0, Music_Celadon_branch_f4495

Music_Celadon_branch_f44fd::
	octave 2
	G_ 2
	rest 2
	octave 3
	D_ 4
	loopchannel 3, Music_Celadon_branch_f44fd
	octave 2
	A_ 1
	rest 1
	octave 3
	D_ 1
	rest 1
	F# 3
	octave 2
	G# 1
	endchannel

Music_Celadon_branch_f4510::
	octave 5
	D_ 8
	C_ 2
	octave 4
	B_ 2
	A_ 2
	B_ 2
	endchannel