Music_Routes1_Ch1::
	tempo 184
	volume 7, 7
	vibrato $16, $1, $1
	duty $3
	notetype $c, $8, $3
	octave 4
	D_ 1
	E_ 1
	F# 2
	F# 2
	D_ 2
	octave 3
	A_ 2
	octave 4
	B_ 2
	A_ 2
	G_ 2
	F# 2
	D_ 2
	octave 3
	A_ 2
	F# 2
	G_ 1
	A_ 1
	G_ 2
	E_ 2
	G_ 1
	E_ 1
	octave 4
	D_ 1
	E_ 1
	F# 2
	F# 2
	D_ 2
	octave 3
	A_ 2
	octave 4
	B_ 2
	A_ 2
	G_ 3
	E_ 1
	E_ 2
	G_ 2
	A_ 2
	G_ 2
	F# 2
	octave 5
	D_ 2
	D_ 2
	rest 2
Music_Routes1_branch_ec04a::
	rest 2
	octave 4
	D_ 2
	octave 3
	A_ 2
	rest 4
	octave 4
	D_ 2
	octave 3
	A_ 2
	rest 2
	rest 2
	octave 4
	D_ 2
	octave 3
	A_ 3
	octave 4
	D_ 1
	octave 3
	E_ 2
	G_ 2
	G_ 2
	rest 2
	rest 2
	octave 4
	C# 2
	octave 3
	A_ 2
	rest 4
	octave 4
	C# 2
	octave 3
	A_ 2
	rest 2
	rest 2
	octave 4
	C# 2
	C# 1
	octave 3
	B_ 1
	A_ 1
	G_ 1
	F# 2
	A_ 2
	octave 4
	D_ 2
	rest 2
	rest 2
	octave 3
	F# 1
	G_ 1
	A_ 4
	rest 2
	D_ 1
	E_ 1
	F# 2
	F# 1
	G_ 1
	A_ 2
	A_ 1
	B_ 1
	A_ 2
	A_ 1
	B_ 1
	A_ 2
	octave 4
	G_ 2
	G_ 2
	octave 3
	F# 1
	E_ 1
	rest 2
	E_ 1
	F# 1
	G_ 6
	E_ 1
	octave 2
	B_ 1
	octave 3
	C# 2
	E_ 1
	F# 1
	G_ 4
	notetype $8, $8, $3
	A_ 1
	B_ 1
	A_ 1
	notetype $c, $8, $3
	G_ 1
	E_ 1
	F# 2
	octave 4
	A_ 2
	A_ 2
	octave 3
	A_ 1
	G_ 1
	F# 4
	A_ 4
	G_ 2
	F# 2
	E_ 2
	G_ 2
	F# 4
	A_ 3
	F# 1
	E_ 2
	A_ 2
	octave 4
	C# 2
	octave 3
	A_ 1
	G_ 1
	duty $2
	octave 6
	F# 4
	A_ 4
	G_ 2
	F# 2
	E_ 3
	G_ 1
	F# 2
	D_ 2
	E_ 2
	C# 2
	D_ 2
	octave 5
	D_ 2
	D_ 2
	rest 2
	loopchannel 0, Music_Routes1_branch_ec04a

Music_Routes1_Ch2::
	vibrato $12, $2, $2
	duty $2
	notetype $c, $9, $2
	octave 4
	F# 1
	G_ 1
	callchannel Music_Routes1_branch_ec198
	octave 3
	A_ 2
	A_ 2
	octave 4
	F# 1
	G_ 1
	callchannel Music_Routes1_branch_ec1aa
	C# 2
	E_ 2
	D_ 2
	F# 2
	F# 2
	octave 4
	D_ 1
	E_ 1
	duty $2
Music_Routes1_branch_ec112::
	callchannel Music_Routes1_branch_ec188
	octave 3
	A_ 2
	A_ 2
	octave 4
	C# 1
	D_ 1
	E_ 2
	E_ 2
	E_ 2
	C# 1
	D_ 1
	E_ 2
	E_ 2
	E_ 2
	C# 1
	D_ 1
	E_ 2
	E_ 2
	F# 1
	E_ 1
	E_ 1
	F# 1
	D_ 2
	rest 2
	F# 2
	D_ 1
	E_ 1
	callchannel Music_Routes1_branch_ec188
	A_ 2
	A_ 2
	C# 1
	D_ 1
	E_ 2
	G_ 2
	F# 2
	E_ 2
	D_ 2
	C# 2
	octave 3
	B_ 2
	A_ 2
	octave 4
	B_ 4
	notetype $8, $9, $2
	C# 1
	D_ 1
	C# 1
	notetype $c, $9, $2
	octave 3
	B_ 1
	octave 4
	C# 1
	D_ 2
	octave 5
	D_ 2
	D_ 2
	octave 4
	F# 1
	G_ 1
	callchannel Music_Routes1_branch_ec198
	rest 4
	F# 1
	G_ 1
	callchannel Music_Routes1_branch_ec1aa
	notetype $8, $9, $2
	C# 1
	D_ 1
	C# 1
	notetype $c, $9, $2
	octave 4
	B_ 1
	octave 5
	C# 1
	D_ 2
	F# 2
	F# 2
	octave 4
	D_ 1
	E_ 1
	loopchannel 0, Music_Routes1_branch_ec112

Music_Routes1_branch_ec188::
	F# 2
	F# 2
	F# 2
	D_ 1
	E_ 1
	F# 2
	F# 2
	F# 2
	D_ 1
	E_ 1
	F# 2
	F# 2
	G_ 3
	F# 1
	E_ 2
	endchannel

Music_Routes1_branch_ec198::
	A_ 2
	A_ 2
	F# 2
	D_ 2
	octave 5
	D_ 2
	C# 2
	octave 4
	B_ 2
	octave 5
	D_ 2
	octave 4
	A_ 2
	F# 2
	D_ 3
	F# 1
	E_ 2
	endchannel

Music_Routes1_branch_ec1aa::
	A_ 2
	A_ 2
	F# 2
	D_ 2
	octave 5
	D_ 2
	C# 2
	octave 4
	B_ 3
	G_ 1
	A_ 2
	octave 5
	D_ 2
	endchannel

Music_Routes1_Ch3::
	vibrato $10, $2, $3
	notetype $c, $2, $5
	rest 2
	octave 3
	D_ 1
	rest 1
	A_ 1
	rest 1
	octave 4
	F# 1
	rest 3
	octave 3
	D_ 1
	rest 1
	B_ 1
	rest 1
	octave 4
	G_ 1
	rest 1
	octave 3
	B_ 1
	rest 1
	D_ 1
	rest 1
	A_ 1
	rest 1
	octave 4
	D_ 1
	rest 3
	octave 3
	C# 1
	rest 1
	A_ 1
	rest 1
	octave 4
	C# 1
	rest 1
	C# 1
	octave 3
	A_ 1
	D_ 1
	octave 2
	A_ 1
	octave 3
	D_ 1
	F# 1
	octave 4
	D_ 1
	octave 3
	A_ 1
	F# 1
	A_ 1
	G_ 1
	D_ 1
	G_ 1
	B_ 1
	octave 4
	G_ 1
	D_ 1
	octave 3
	B_ 1
	G_ 1
	octave 2
	A_ 1
	octave 3
	C# 1
	E_ 1
	G_ 1
	E_ 1
	A_ 1
	octave 4
	C# 1
	G_ 1
	F# 2
	A_ 1
	rest 1
	A_ 1
	rest 3
Music_Routes1_branch_ec20c::
	octave 3
	D_ 1
	rest 1
	octave 4
	D_ 2
	octave 3
	C# 1
	rest 1
	octave 4
	C# 2
	octave 2
	B_ 1
	rest 1
	octave 3
	B_ 2
	octave 2
	A_ 1
	rest 1
	octave 3
	A_ 2
	D_ 1
	rest 1
	octave 4
	D_ 2
	octave 2
	A_ 1
	rest 1
	octave 3
	A_ 2
	octave 2
	B_ 1
	rest 1
	octave 3
	B_ 2
	octave 2
	A_ 1
	rest 1
	octave 3
	A_ 2
	C# 1
	rest 1
	octave 4
	C# 2
	octave 2
	A_ 1
	rest 1
	octave 3
	A_ 2
	octave 2
	B_ 1
	rest 1
	octave 3
	B_ 2
	C_ 1
	rest 1
	octave 4
	C_ 2
	octave 3
	C# 1
	rest 1
	octave 4
	C# 2
	octave 2
	A_ 1
	rest 1
	octave 3
	A_ 2
	octave 4
	D_ 2
	C# 1
	octave 3
	B_ 1
	A_ 2
	G_ 1
	E_ 1
	octave 2
	D_ 1
	rest 1
	octave 3
	D_ 2
	octave 2
	E_ 1
	rest 1
	octave 3
	E_ 2
	octave 2
	F# 1
	rest 1
	octave 3
	F# 2
	octave 2
	A_ 1
	rest 1
	octave 3
	A_ 2
	octave 4
	D_ 2
	octave 3
	A_ 2
	octave 4
	D_ 2
	F# 2
	E_ 2
	octave 3
	E_ 1
	rest 1
	E_ 1
	rest 1
	octave 4
	E_ 2
	octave 3
	C# 1
	rest 1
	octave 4
	C# 2
	octave 2
	B_ 1
	rest 1
	octave 3
	B_ 2
	octave 2
	A_ 1
	rest 1
	octave 3
	A_ 2
	octave 2
	G_ 1
	rest 1
	octave 3
	G_ 1
	B_ 1
	octave 4
	C# 2
	E_ 1
	C# 1
	octave 3
	A_ 1
	G_ 1
	E_ 1
	C# 1
	D_ 2
	octave 4
	F# 1
	rest 1
	F# 1
	rest 3
	octave 3
	D_ 4
	F# 4
	G_ 2
	A_ 2
	B_ 3
	G_ 1
	F# 2
	D_ 2
	octave 2
	A_ 3
	octave 3
	D_ 1
	A_ 1
	B_ 1
	A_ 1
	B_ 1
	A_ 3
	G_ 1
	F# 2
	D_ 2
	octave 2
	A_ 2
	octave 3
	D_ 2
	G_ 2
	F# 2
	E_ 3
	C# 1
	D_ 2
	F# 2
	A_ 2
	octave 4
	C# 2
	D_ 2
	octave 5
	A_ 1
	rest 1
	A_ 1
	rest 3
	loopchannel 0, Music_Routes1_branch_ec20c
	
Music_Routes1_Ch4::
	dspeed 12
	rest 4
	mutedsnare1 2
	rest 2
	mutedsnare1 2
	rest 2
	mutedsnare1 2
	rest 2
	mutedsnare1 2
	rest 2
	mutedsnare1 2
	rest 2
	mutedsnare1 2
	rest 2
	mutedsnare1 2
	mutedsnare1 2
	rest 4
	mutedsnare1 2
	rest 2
	mutedsnare1 2
	rest 2
	mutedsnare1 2
	rest 2
	mutedsnare1 2
	rest 2
	mutedsnare1 2
	rest 2
	mutedsnare1 2
	mutedsnare1 2
	mutedsnare1 2
	mutedsnare1 2
	rest 4
	mutedsnare1 2
	rest 2
	mutedsnare1 2
	rest 2
	mutedsnare1 2
	rest 2
	mutedsnare1 2
	rest 2
	mutedsnare1 2
	rest 2
	mutedsnare1 2
	rest 2
	mutedsnare1 2
	mutedsnare1 2
	rest 4
	mutedsnare1 2
	rest 2
	mutedsnare1 2
	rest 2
	mutedsnare1 2
	rest 2
	mutedsnare1 2
	rest 2
	mutedsnare1 2
	rest 2
	mutedsnare1 2
	rest 2
	mutedsnare1 2
	mutedsnare1 2
	mutedsnare1 2
	rest 2
	mutedsnare1 2
	mutedsnare1 2
	rest 4
	mutedsnare1 2
	mutedsnare1 2
	mutedsnare1 2
	rest 2
	mutedsnare1 2
	mutedsnare1 2
	rest 4
	mutedsnare1 2
	mutedsnare1 2
	mutedsnare1 2
	rest 2
	mutedsnare1 2
	mutedsnare1 2
	rest 4
	mutedsnare1 2
	mutedsnare1 2
	mutedsnare1 2
	rest 2
	mutedsnare1 2
	mutedsnare1 2
	mutedsnare1 2
	rest 2
	mutedsnare1 2
	mutedsnare1 2
	loopchannel 0, Music_Routes1_Ch4
	endchannel